<svg width="600" height="100" viewBox="0 0 600 100" fill="none" xmlns="http://www.w3.org/2000/svg">
<rect x="0" width="600" height="100" fill="none"/>
<rect x="250" width="100" height="100" fill="white"/>
<path d="M255.5 5.4L272.9 5.5V0H250V100H314V94.5H255.5V5.4Z" fill="#2B3C7A"/>
<path d="M286 0V5.5H344.6L344.5 94.5H327.1V100H350V0H286Z" fill="#2B3C7A"/>
<path d="M287 0H281.5V5.4H287V0Z" fill="#3775BA"/>
<path d="M273 35.3V53.6H281.8L283.5 57.4H268.8V35.3H273Z" fill="#2B3C7A"/>
<path d="M298.1 41.9L286.3 69.4H282L287.2 57.2L280.9 41.9H285.4L287.8 48.6L289.3 53L290.9 48.7L293.8 41.9H298.1Z" fill="#2B3C7A"/>
<path d="M304.5 41.9L304.8 43.7C306 41.8 307.6 41.5 309.2 41.5C310.8 41.5 312.4 42.1 313.2 43L311.5 46.3C310.7 45.6 310 45.3 308.7 45.3C306.7 45.3 304.8 46.4 304.8 49.2V57.4H300.9V41.8L304.5 41.9Z" fill="#2B3C7A"/>
<path d="M327 41.9H330.7V57.5H327.1L326.9 55.2C326 57 323.6 57.9 321.8 57.9C317.2 57.9 313.8 55.1 313.8 49.6C313.8 44.2 317.4 41.4 321.9 41.5C324 41.5 326 42.5 326.9 44L327 41.9ZM317.6 49.6C317.6 52.6 319.7 54.3 322.2 54.3C328.3 54.3 328.3 44.9 322.2 44.9C319.7 44.9 317.6 46.7 317.6 49.6Z" fill="#2B3C7A"/>
<path d="M318.6 94.6H313.1V100H318.6V94.6Z" fill="#3775BA"/>
</svg>
